<mxfile host="app.diagrams.net" modified="2023-05-04T10:32:00.995Z" agent="Mozilla/5.0 (Windows NT 10.0; Win64; x64) AppleWebKit/537.36 (KHTML, like Gecko) Chrome/112.0.0.0 Safari/537.36" version="21.2.7" etag="A81ahBJoAafqbs82rI9_" type="github">
  <diagram name="Page-1" id="6X49AMMM6U6xrPUamU6x">
    <mxGraphModel>
      <root>
        <mxCell id="0" />
        <mxCell id="1" parent="0" />
        <mxCell id="2" value="User Interface" style="whiteSpace=wrap;strokeWidth=2;" vertex="1" parent="1">
          <mxGeometry x="153" width="117" height="34" as="geometry" />
        </mxCell>
        <mxCell id="3" value="Platform" style="ellipse;aspect=fixed;strokeWidth=2;whiteSpace=wrap;" vertex="1" parent="1">
          <mxGeometry x="167" y="103" width="78" height="78" as="geometry" />
        </mxCell>
        <mxCell id="4" value="Asset Listing" style="whiteSpace=wrap;strokeWidth=2;" vertex="1" parent="1">
          <mxGeometry x="81" y="250" width="105" height="34" as="geometry" />
        </mxCell>
        <mxCell id="5" value="Asset Storage" style="whiteSpace=wrap;strokeWidth=2;" vertex="1" parent="1">
          <mxGeometry x="340" y="250" width="113" height="34" as="geometry" />
        </mxCell>
        <mxCell id="6" value="Browse" style="curved=1;startArrow=none;endArrow=block;exitX=0.33898747232123216;exitY=1.002673766192268;entryX=0.13972410000816637;entryY=0.0023309756547976765;" edge="1" parent="1" source="2" target="3">
          <mxGeometry relative="1" as="geometry">
            <Array as="points">
              <mxPoint x="153" y="69" />
            </Array>
          </mxGeometry>
        </mxCell>
        <mxCell id="7" value="Buy" style="curved=1;startArrow=none;endArrow=block;exitX=0.5059094265994862;exitY=1.002673766192268;entryX=0.5409706623612264;entryY=0.0023309756547976765;" edge="1" parent="1" source="2" target="3">
          <mxGeometry relative="1" as="geometry">
            <Array as="points">
              <mxPoint x="212" y="69" />
            </Array>
          </mxGeometry>
        </mxCell>
        <mxCell id="8" value="Sell" style="curved=1;startArrow=none;endArrow=block;exitX=0.6368738387495232;exitY=1.002673766192268;entryX=0.855782577863929;entryY=0.0023309756547976765;" edge="1" parent="1" source="2" target="3">
          <mxGeometry relative="1" as="geometry">
            <Array as="points">
              <mxPoint x="259" y="69" />
            </Array>
          </mxGeometry>
        </mxCell>
        <mxCell id="9" value="Create listing" style="curved=1;startArrow=none;endArrow=block;exitX=-0.0006164648594000401;exitY=0.7328313032706794;entryX=0.2308222086831766;entryY=0.0005415748147403493;" edge="1" parent="1" source="3" target="4">
          <mxGeometry relative="1" as="geometry">
            <Array as="points">
              <mxPoint x="48" y="215" />
            </Array>
          </mxGeometry>
        </mxCell>
        <mxCell id="10" value="Name, Description, Price" style="curved=1;startArrow=none;endArrow=block;exitX=0.7268087459114578;exitY=0.0005415748147403493;entryX=0.4977533389360477;entryY=0.9990705832456931;" edge="1" parent="1" source="4" target="3">
          <mxGeometry relative="1" as="geometry">
            <Array as="points">
              <mxPoint x="206" y="215" />
            </Array>
          </mxGeometry>
        </mxCell>
        <mxCell id="11" value="Store assets using IPFS" style="curved=1;startArrow=none;endArrow=block;exitX=0.9961231427314954;exitY=0.6931270781048559;entryX=0.4953335787342713;entryY=0.0005415748147403493;" edge="1" parent="1" source="3" target="5">
          <mxGeometry relative="1" as="geometry">
            <Array as="points">
              <mxPoint x="396" y="215" />
            </Array>
          </mxGeometry>
        </mxCell>
      </root>
    </mxGraphModel>
  </diagram>
</mxfile>
